<svg version="1.1" id="Layer_1" xmlns="http://www.w3.org/2000/svg" x="0" y="0" viewBox="0 0 360.2 72" xml:space="preserve"><style>.st0{fill:#59595b}</style><path class="st0" d="M276.7 22.2l-5.8 1.1c-1.1-6.1-2.8-10.7-5.2-13.6-2.4-2.9-5.5-4.4-9.4-4.4-5.6 0-9.8 2.6-12.6 7.8-2.8 5.2-4.3 12.9-4.3 23s1.4 17.8 4.3 23c2.9 5.2 7.1 7.8 12.7 7.8 8.8 0 13.7-6.3 14.9-18.9h6c-.6 7.8-2.8 13.8-6.3 17.9-3.6 4.1-8.5 6.2-14.7 6.2-7.6 0-13.3-3-17.1-9.1-3.9-6-5.8-15-5.8-26.7 0-11.8 2-20.8 6-27 4-6.1 9.7-9.2 17.3-9.2 10.9-.1 17.6 7.3 20 22.1zM284.1 1.7h32v5.2H290v26.2h24.5v5.2H290v32h-5.9V1.7zM323.2 1.7h16.3c5.8 0 10.4 1.5 13.7 4.5 3.3 3 4.9 7.1 4.9 12.4 0 7.6-3.5 12.7-10.6 15.3 3.9 1 7 3.1 9.3 6.2 2.3 3.1 3.4 6.8 3.4 11.2 0 5.9-1.7 10.5-5.2 13.9s-8.3 5.1-14.4 5.1h-17.5V1.7h.1zM340 31.9c4 0 7-1.1 9.1-3.3s3.2-5.4 3.2-9.5c0-8.3-4.4-12.4-13.3-12.4h-10v25.2h11zm.2 33.4c9.5 0 14.3-4.7 14.3-14.1 0-4.5-1.2-8.1-3.6-10.6s-5.8-3.7-10.1-3.7H329v28.4h11.2z"/><g><path class="st0" d="M160.5 66.1c-4.7 3.9-11.6 5.9-20.7 5.9-8.8 0-15.7-1.9-20.7-5.6-5.1-3.7-7.9-9.4-8.5-17.2h15c.6 3.7 2.1 6.4 4.5 8.2 2.4 1.8 5.9 2.6 10.5 2.6 4.4 0 7.5-.8 9.3-2.5 1.8-1.7 2.6-3.8 2.6-6.3 0-2-.6-3.8-1.9-5.3-1.2-1.5-3.8-2.5-7.5-3.2l-9-1.7c-7.3-1.3-12.8-3.6-16.5-6.7-3.7-3.1-5.5-7.7-5.5-13.7 0-4.5 1.1-8.3 3.4-11.3 2.3-3.1 5.5-5.4 9.6-7C129.2.7 134-.1 139.4-.1c6 0 10.8.8 14.6 2.5 3.8 1.7 6.7 4 8.7 6.9s3.3 6.3 3.8 10l-14.6 1.8c-.8-3.2-2.2-5.6-4-7.1-1.8-1.5-4.8-2.3-8.9-2.3-4.4 0-7.5.7-9.3 2.2-1.9 1.5-2.8 3.4-2.8 5.7s.7 4.1 2.1 5.3c1.4 1.2 3.9 2.2 7.4 2.9l9.4 1.8c7.6 1.5 13.2 3.8 16.6 7.1 3.5 3.2 5.2 7.8 5.2 13.7-.1 6.6-2.4 11.8-7.1 15.7zM174.2 1.7H200c6.5 0 11.6.9 15.5 2.7 3.9 1.8 6.7 4.3 8.4 7.4 1.7 3.2 2.6 6.8 2.6 10.8 0 4.4-.9 8.1-2.7 11.3-1.8 3.2-4.5 5.8-8.3 7.7l14.3 28.6H214l-12-25.3h-13.4v25.2h-14.4V1.7zm25.4 31.7c4.7 0 8-.9 9.7-2.6 1.7-1.8 2.6-4.3 2.6-7.6 0-3.2-.9-5.6-2.8-7.2-1.9-1.6-5.2-2.4-10.1-2.4h-10.5v20h11.1v-.2z"/></g><g><path d="M102.2 0v72s-14.9-10.1-37-10.1C47.4 61.9 10 64.9 0 16c0 0 6.8 5.9 20.7 5.9C43.2 22 50.5 0 102.2 0z" fill="#fff"/><path d="M69.6 23.2h-1.9v-6.6H78v6.6h-2v27.5l-4.1 4.2H60.6l-4.1-4.2V23.2h-2.1v-6.6h10.3v6.6h-1.8V48h6.6l.1-24.8zm32.6 18.6V72s-14.9-10.1-37-10.1C47.4 61.9 10 64.9 0 16c0 0 6.8 5.9 20.7 5.9 22.5 0 29.9-22 81.5-22v30.6c-1.4-1.9-3.3-3.9-5.5-5.9v22.2c2.3-1.8 4.2-3.5 5.5-5zM35.9 24.6c-3.6 3.1-6.1 6.4-7.6 9.1-.1.2-.3 1.4-.3 2.5s.2 2.2.3 2.5c.6 1.7 3.4 4.8 7.6 8.1V24.6zm53.9-5c-6.3-3.7-14.2-6.5-23.5-6.5S49 15.9 42.8 19.6v31.9c6.6 3.8 14.8 6.8 23.5 6.8 8.8 0 17-3.1 23.5-6.8V19.6z" fill="#165eaa"/></g></svg>